<?xml version="1.0" encoding="utf-8"?>
<!-- Generator: Adobe Illustrator 22.0.1, SVG Export Plug-In . SVG Version: 6.00 Build 0)  -->
<svg version="1.1" id="Capa_1" xmlns="http://www.w3.org/2000/svg" xmlns:xlink="http://www.w3.org/1999/xlink" x="0px" y="0px"
	 viewBox="0 0 512 512" style="enable-background:new 0 0 512 512;" xml:space="preserve">
<style type="text/css">
	.st0{fill:#5983E8;}
</style>
<path class="st0" d="M394.9,133.1l-50.4,16.8c-1.3,0.4-2.7,0.8-4.1,1l-40.1,6.7c-5,0.8-9.3,3.8-11.9,8.1c-2.6,4.3-3.2,9.5-1.6,14.3
	l3.1,9.3c-4.1,3.1-6.8,8.1-6.8,13.6v0.9c-3.1-3.3-7-6.6-11.9-8.2l-5.7-17.1c-1.9-5.7-6.7-10-12.5-11.3l-67.1-14.9
	c-5.6-1.2-11.4-1.9-17.2-1.9h-9.9c-4.6,0-8.3,3.7-8.3,8.3c0,4.6,3.7,8.3,8.3,8.3h9.9c4.6,0,9.1,0.5,13.6,1.5l67.1,14.9
	c0.2,0,0.3,0.2,0.4,0.4l4.2,12.6c-7.5,1.7-16.5,4.3-22.5,6.1c-1.5-2-3.2-3.9-5.3-5.8c-21.3-18.7-52.8-8.9-65.5-3.7l-8.5-8.5
	c-4.9-4.9-11.4-7.6-18.4-7.6H64.8c-9.5,0-18.9,2.6-27,7.5L4,204.7c-3.9,2.4-5.2,7.5-2.8,11.4c2.4,3.9,7.5,5.2,11.4,2.8l33.7-20.2
	c4.8-2.9,10.1-4.6,15.6-5v18.1c0,4.6,3.7,8.3,8.3,8.3s8.3-3.7,8.3-8.3v-18.2h55.2c2.5,0,4.9,1,6.6,2.8l11.1,11.1
	c1,3.2,1.9,6.8,2.7,10.5l-2.8-1.4c-6.2-3.1-13.3-3.6-19.8-1.4l-19.6,6.5c-4.3,1.4-6.7,6.1-5.2,10.5c1.4,4.3,6.1,6.7,10.5,5.2
	l19.6-6.5c2.4-0.8,4.9-0.6,7.2,0.5l12.4,6.1c-0.1,4.1-0.6,7.7-1.8,10.3h-4.6c-4.6,0-8.3,3.7-8.3,8.3s3.7,8.3,8.3,8.3h4.6
	c1.2,2.6,1.8,6.2,1.8,10.3l-12.5,6.1c-2.2,1.1-4.8,1.3-7.2,0.5l-19.6-6.5c-4.3-1.4-9,0.9-10.5,5.2c-1.4,4.3,0.9,9,5.2,10.5l19.6,6.5
	c6.6,2.2,13.6,1.7,19.8-1.4l2.9-1.4c-0.8,3.7-1.7,7.3-2.7,10.5l-11.1,11.1c-1.8,1.8-4.1,2.8-6.6,2.8H78.5v-18.2
	c0-4.6-3.7-8.3-8.3-8.3s-8.3,3.7-8.3,8.3v18.1c-5.5-0.4-10.9-2.1-15.6-5l-33.7-20.2c-3.9-2.4-9-1.1-11.4,2.8
	c-2.4,3.9-1.1,9,2.8,11.4l33.7,20.2c8.2,4.9,17.5,7.5,27,7.5h68.9c6.9,0,13.5-2.7,18.4-7.6l8.5-8.5c12.8,5.2,44.3,15,65.6-3.7
	c2.1-1.9,3.9-3.8,5.4-5.8c6,1.8,15,4.4,22.5,6.1l-4.2,12.6c-0.1,0.2-0.2,0.3-0.4,0.4l-67.1,14.9c-4.4,1-9,1.5-13.6,1.5h-9.9
	c-4.6,0-8.3,3.7-8.3,8.3s3.7,8.3,8.3,8.3h9.9c5.8,0,11.5-0.6,17.2-1.9l67.1-14.9c5.8-1.3,10.7-5.6,12.5-11.3l5.7-17.1
	c5-1.6,8.8-4.9,11.9-8.2v0.9c0,5.6,2.7,10.5,6.8,13.6l-3.1,9.3c-1.6,4.8-1,10,1.6,14.3c2.6,4.3,6.9,7.2,11.9,8.1l40.1,6.7
	c1.4,0.2,2.8,0.6,4.1,1l50.4,16.8c4.3,1.4,9-0.9,10.5-5.2c0.3-0.9,0.4-1.8,0.4-2.6c0-3.5-2.2-6.7-5.7-7.9l-50.4-16.8
	c-2.2-0.7-4.4-1.3-6.6-1.6L303,338c-0.1,0-0.3,0-0.4-0.3c-0.1-0.2-0.1-0.4-0.1-0.5l3.7-11h61.4l9,9c5.8,5.8,14,8.5,22.1,7.4
	l52.6-7.5h52.5c4.6,0,8.3-3.7,8.3-8.3c0-4.6-3.7-8.3-8.3-8.3h-53.1c-0.4,0-0.8,0-1.2,0.1l-53.2,7.6c-1.3,0.2-2.5,0.1-3.7-0.2
	c36.1-3.2,65.3-32.3,66.3-67.8c0-0.7,0-1.5,0-2.2c0-18.4-7-35.7-19.8-48.9c-12.3-12.7-28.5-20.1-45.9-21.2c1-0.2,2.1-0.2,3.1-0.1
	l53.2,7.6c0.4,0.1,0.8,0.1,1.2,0.1h53.1c4.6,0,8.3-3.7,8.3-8.3c0-4.6-3.7-8.3-8.3-8.3h-52.5l-52.6-7.5c-8.1-1.2-16.3,1.6-22.1,7.4
	l-9,9h-61.4l-3.7-11c0-0.1-0.1-0.2,0.1-0.5c0.1-0.2,0.3-0.2,0.4-0.3l40.1-6.7c2.2-0.4,4.5-0.9,6.6-1.6l50.4-16.8
	c3.5-1.2,5.7-4.4,5.7-7.9c0-0.9-0.1-1.8-0.4-2.6C404,134,399.3,131.7,394.9,133.1z M183.1,308.5c-5.6-1.1-10.7-2.7-14.4-4.2
	c1.1-4.1,2.3-9.7,3.2-15.7c2-14,1-25-3-32.7c4-7.7,5-18.6,3-32.7c-0.9-6-2.1-11.5-3.2-15.7c3.7-1.4,8.8-3.1,14.4-4.2
	c13.9-2.7,24.7-0.8,32,5.6c8.8,7.7,6.4,16.6,1.3,30.4c-2.1,5.8-4.1,11.2-4.1,16.4c0,0,0,0,0,0.1c0,0,0,0,0,0.1
	c0,5.2,2,10.6,4.1,16.4c5,13.8,7.5,22.7-1.3,30.4C207.8,309.3,197,311.2,183.1,308.5z M273.6,294c-3.6,4.1-6.2,6.8-8.7,6.8
	c-2.9,0-15.6-3.3-27.5-6.8c0.9-10.2-2.7-20.1-5.3-27.2c-1.5-4.2-3.1-8.5-3.1-10.7c0-2.3,1.6-6.6,3.1-10.7c2.3-6.3,5.5-14.9,5.5-23.9
	c0-1.1-0.1-2.2-0.2-3.4c11.9-3.5,24.6-6.8,27.5-6.8c2.5,0,5.1,2.7,8.7,6.8c2.6,3,5.7,6.4,9.5,8.6v4.1c0,7.5,4.5,14.1,11.3,16.3
	c3.8,1.3,6.4,4.9,6.4,8.9c0,4-2.6,7.6-6.4,8.9c-6.7,2.3-11.3,8.8-11.3,16.3v4.1C279.2,287.5,276.2,291,273.6,294z M427.2,218.7
	c10.2,10.5,15.5,24.4,15.1,39c-0.9,28.7-26.1,52-56.2,52h-85.7c0,0,0,0,0,0h-0.1c-0.3,0-0.6-0.2-0.6-0.6v-27.8
	c0-0.3,0.1-0.5,0.2-0.7c7.8-2.7,13.6-8.8,16.2-16.3h99.2c4.6,0,8.3-3.7,8.3-8.3s-3.7-8.3-8.3-8.3H316c-2.5-7.5-8.4-13.6-16.2-16.3
	c-0.1-0.1-0.2-0.4-0.2-0.7v-27.8c0-0.3,0.2-0.6,0.6-0.6h0.1c0,0,0,0,0,0h88.3C403.3,202.4,417,208.2,427.2,218.7z"/>
</svg>
